# xmcd
#
# Track frame offsets: 
#        150
#        12497
#        25826
#        44924
#        65716
#        83231
#        101761
#        122437
#        146900
#        172036
#        190737
#        209028
#        229451
#        257390
#        284385
#        302484
#        324465
#
# Disc length: 4608 seconds
#
# Revision: 1
# Processed by: cddbd v1.5.2PL0 Copyright (c) Steve Scherf et al.
# Submitted via: ExactAudioCopy v1.0b1
#
DISCID=0211fe11
DTITLE=Michael Bloomfield - Analine and Michael Bloomfield
DYEAR=2007
DGENRE=Blues
TTITLE0=Peepin`An A-Moanin`Blues
TTITLE1=Mr.Johnson And Mr. Dunn
TTITLE2=Frankie And Johnny
TTITLE3=At The Cross
TTITLE4=Big `C` Blues
TTITLE5=Hilo Waltz
TTITLE6=Effinonna Rag
TTITLE7=Mood Indigo
TTITLE8=Analine
TTITLE9=Guitar King
TTITLE10=Knockin`Myself Out
TTITLE11=My Children, My Children ( I Call You )
TTITLE12=Women Loving Each Other
TTITLE13=Sloppy Drunk
TTITLE14=You Took My Money
TTITLE15=See That My Grave Is Kept Clean
TTITLE16=The Gospel Truth
EXTD=YEAR: 2007
EXTT0=
EXTT1=
EXTT2=
EXTT3=
EXTT4=
EXTT5=
EXTT6=
EXTT7=
EXTT8=
EXTT9=
EXTT10=
EXTT11=
EXTT12=
EXTT13=
EXTT14=
EXTT15=
EXTT16=
PLAYORDER=
